<svg width="327" height="103" viewBox="0 0 327 103" fill="none" xmlns="http://www.w3.org/2000/svg">
<path d="M57.29 23.55L0 80.84L22.14 102.65L46.15 78.64C38.54 59.11 44.42 37.27 57.29 23.55Z" fill="url(#paint0_linear_112_9)"/>
<path d="M99.5301 33.1901V2.12012C86.7301 2.12012 75.0501 6.92012 66.1701 14.7901L63.3301 17.5001C54.2601 27.2601 49.6001 38.3201 49.2601 51.2001C49.0901 58.0801 50.4701 65.6201 53.1001 71.6901C60.6801 89.8601 78.6101 102.66 99.5201 102.66V71.5801C88.9201 71.5801 80.3401 62.9801 80.3401 52.4001C80.3501 41.7901 88.9401 33.1901 99.5301 33.1901Z" fill="url(#paint1_linear_112_9)"/>
<path d="M130.57 79.6202L140.29 25.7402H157.46L147.7 79.6202H130.57Z" fill="#3F464A"/>
<path d="M172.95 55.4501C176.06 34.3201 190.24 39.8501 192.89 41.0201L195.34 27.4501C193.07 25.5301 188.16 24.8301 186.42 24.7601C174.09 24.2601 155.59 32.8701 155.46 60.5201C155.34 86.4601 181.3 81.1101 186.2 78.0401L186.53 76.3101L188.8 63.7001C174.82 71.5301 171.99 61.9901 172.95 55.4501Z" fill="#3F464A"/>
<path d="M249.28 79L244.72 25.64H227.36L208.16 79H222.88L224.88 72.2H234.4L234.64 79H249.28ZM234 54.6C234 56.68 234.08 58.76 234.16 60.84H228.16C229.68 55.88 230.96 50.92 232.4 45.96C233.12 43.48 233.6 40.92 234.24 38.44C234.16 41.48 234 44.6 234 47.64V54.6ZM259.953 25.64L253.393 79H266.673C275.713 79 282.193 76.36 287.313 68.76C291.393 62.68 293.313 54.44 293.313 47.16C293.313 33.8 285.713 25.64 272.193 25.64H259.953ZM272.513 39C277.873 39 278.673 44.76 278.673 48.92C278.673 54.92 276.833 65.72 269.153 66.12L272.513 39ZM326.937 27.4C323.897 25.72 320.537 24.68 317.017 24.68C306.857 24.68 298.777 34.44 298.777 44.28C298.777 55.8 309.817 57.96 309.817 62.76C309.817 65.32 307.497 66.76 305.177 66.76C301.417 66.76 298.697 63.96 296.857 60.92L294.777 77.64C297.977 79.08 301.417 79.96 304.937 79.96C316.297 79.96 324.297 70.28 324.297 59.32C324.297 48.36 313.097 46.12 313.097 41.4C313.097 39.32 315.417 37.88 317.337 37.88C320.777 37.88 323.497 40.84 324.937 43.72L326.937 27.4Z" fill="#3F464A"/>
<defs>
<linearGradient id="paint0_linear_112_9" x1="55.9619" y1="22.782" x2="12.927" y2="97.3206" gradientUnits="userSpaceOnUse">
<stop stop-color="#23A9F4"/>
<stop offset="0.6307" stop-color="#394BEB"/>
<stop offset="1" stop-color="#1F34EC"/>
</linearGradient>
<linearGradient id="paint1_linear_112_9" x1="110.414" y1="8.40542" x2="63.5169" y2="89.633" gradientUnits="userSpaceOnUse">
<stop stop-color="#1CCFF6"/>
<stop offset="0.219718" stop-color="#23A9F4"/>
<stop offset="0.919499" stop-color="#394BEB"/>
<stop offset="1" stop-color="#1F34EC"/>
</linearGradient>
</defs>
</svg>
